<svg width="28" height="28" viewBox="0 0 28 28" fill="none" xmlns="http://www.w3.org/2000/svg">
<g clip-path="url(#clip0_1149_3508)">
<path d="M3.5 14C3.5 15.3789 3.77159 16.7443 4.29926 18.0182C4.82694 19.2921 5.60036 20.4496 6.57538 21.4246C7.55039 22.3996 8.70791 23.1731 9.98182 23.7007C11.2557 24.2284 12.6211 24.5 14 24.5C15.3789 24.5 16.7443 24.2284 18.0182 23.7007C19.2921 23.1731 20.4496 22.3996 21.4246 21.4246C22.3996 20.4496 23.1731 19.2921 23.7007 18.0182C24.2284 16.7443 24.5 15.3789 24.5 14C24.5 12.6211 24.2284 11.2557 23.7007 9.98182C23.1731 8.70791 22.3996 7.55039 21.4246 6.57538C20.4496 5.60036 19.2921 4.82694 18.0182 4.29927C16.7443 3.77159 15.3789 3.5 14 3.5C12.6211 3.5 11.2557 3.77159 9.98182 4.29927C8.70791 4.82694 7.55039 5.60036 6.57538 6.57538C5.60036 7.55039 4.82694 8.70791 4.29926 9.98182C3.77159 11.2557 3.5 12.6211 3.5 14Z" stroke="#39B980" stroke-width="1.75" stroke-linecap="round" stroke-linejoin="round"/>
<path d="M10.5 11.667C10.5 12.5952 10.8687 13.4855 11.5251 14.1419C12.1815 14.7982 13.0717 15.167 14 15.167C14.9283 15.167 15.8185 14.7982 16.4749 14.1419C17.1313 13.4855 17.5 12.5952 17.5 11.667C17.5 10.7387 17.1313 9.8485 16.4749 9.19212C15.8185 8.53574 14.9283 8.16699 14 8.16699C13.0717 8.16699 12.1815 8.53574 11.5251 9.19212C10.8687 9.8485 10.5 10.7387 10.5 11.667Z" stroke="#39B980" stroke-width="1.75" stroke-linecap="round" stroke-linejoin="round"/>
<path d="M7.1958 21.9908C7.48456 21.0298 8.07543 20.1874 8.88075 19.5886C9.68608 18.9899 10.663 18.6667 11.6665 18.667H16.3331C17.3379 18.6666 18.316 18.9906 19.1219 19.5907C19.9278 20.1909 20.5185 21.0351 20.8061 21.9978" stroke="#39B980" stroke-width="1.75" stroke-linecap="round" stroke-linejoin="round"/>
</g>
<defs>
<clipPath id="clip0_1149_3508">
<rect width="28" height="28" fill="white"/>
</clipPath>
</defs>
</svg>
