<svg width="140" height="40" viewBox="0 0 140 40" fill="none" xmlns="http://www.w3.org/2000/svg">
<g clip-path="url(#clip0_251_1451)">
<path d="M132 0H8C3.58172 0 0 3.58172 0 8V32C0 36.4183 3.58172 40 8 40H132C136.418 40 140 36.4183 140 32V8C140 3.58172 136.418 0 132 0Z" fill="black"/>
<path d="M42.2658 7.23197C42.6754 7.20258 43.0864 7.26446 43.4692 7.41314C43.852 7.56183 44.197 7.79362 44.4793 8.09179C44.7617 8.38996 44.9744 8.74707 45.102 9.13739C45.2296 9.5277 45.269 9.94147 45.2174 10.3489C45.2174 12.3529 44.1343 13.5048 42.2658 13.5048H40V7.23197H42.2658ZM40.9743 12.6177H42.157C42.4497 12.6352 42.7425 12.5872 43.0143 12.4772C43.2861 12.3672 43.53 12.198 43.7282 11.9819C43.9263 11.7658 44.0738 11.5082 44.1599 11.228C44.2459 10.9477 44.2684 10.6517 44.2256 10.3616C44.2653 10.0727 44.2405 9.77859 44.1532 9.50036C44.0658 9.22212 43.9179 8.96665 43.7202 8.75227C43.5225 8.53788 43.2798 8.36987 43.0096 8.26029C42.7393 8.15071 42.4482 8.10226 42.157 8.11842H40.9743V12.6177Z" fill="white"/>
<path d="M46.3177 11.1356C46.2879 10.8245 46.3235 10.5107 46.4222 10.2141C46.5208 9.91759 46.6804 9.64495 46.8906 9.41369C47.1008 9.18243 47.357 8.99765 47.6428 8.8712C47.9285 8.74476 48.2376 8.67944 48.5501 8.67944C48.8626 8.67944 49.1717 8.74476 49.4575 8.8712C49.7433 8.99765 49.9995 9.18243 50.2097 9.41369C50.4199 9.64495 50.5794 9.91759 50.6781 10.2141C50.7767 10.5107 50.8123 10.8245 50.7826 11.1356C50.8129 11.447 50.7777 11.7614 50.6793 12.0584C50.5809 12.3554 50.4215 12.6285 50.2112 12.8602C50.001 13.092 49.7446 13.2771 49.4585 13.4038C49.1724 13.5306 48.863 13.596 48.5501 13.596C48.2372 13.596 47.9278 13.5306 47.6417 13.4038C47.3557 13.2771 47.0993 13.092 46.889 12.8602C46.6788 12.6285 46.5193 12.3554 46.4209 12.0584C46.3225 11.7614 46.2874 11.447 46.3177 11.1356ZM49.8216 11.1356C49.8216 10.1095 49.3606 9.50944 48.5517 9.50944C47.7396 9.50944 47.2828 10.1095 47.2828 11.1356C47.2828 12.17 47.7396 12.7654 48.5517 12.7654C49.3607 12.7654 49.8216 12.1659 49.8216 11.1356Z" fill="white"/>
<path d="M56.718 13.5046H55.7489L54.7705 10.0181H54.6966L53.7223 13.5046H52.7624L51.4575 8.77075H52.4051L53.2531 12.383H53.3229L54.2962 8.77075H55.1925L56.1657 12.383H56.2396L57.0835 8.77075H58.0178L56.718 13.5046Z" fill="white"/>
<path d="M59.1152 8.7706H60.0146V9.52261H60.0844C60.2028 9.25252 60.4026 9.0261 60.6558 8.87492C60.909 8.72374 61.2031 8.65533 61.497 8.67922C61.7274 8.6619 61.9587 8.69663 62.1738 8.78084C62.3888 8.86504 62.5822 8.99656 62.7396 9.16565C62.897 9.33474 63.0142 9.53707 63.0828 9.75765C63.1513 9.97823 63.1694 10.2114 63.1356 10.4399V13.5044H62.2013V10.6745C62.2013 9.91377 61.8708 9.53545 61.1798 9.53545C61.0234 9.52816 60.8673 9.55478 60.7222 9.61347C60.577 9.67217 60.4463 9.76155 60.339 9.87549C60.2316 9.98944 60.1501 10.1252 60.1002 10.2736C60.0502 10.422 60.0329 10.5794 60.0495 10.7351V13.5044H59.1152V8.7706Z" fill="white"/>
<path d="M64.6235 6.92285H65.5578V13.5047H64.6235V6.92285Z" fill="white"/>
<path d="M66.8572 11.1357C66.8275 10.8246 66.8631 10.5107 66.9618 10.2142C67.0604 9.91762 67.22 9.64497 67.4302 9.4137C67.6404 9.18243 67.8967 8.99765 68.1825 8.87121C68.4683 8.74476 68.7774 8.67944 69.0899 8.67944C69.4024 8.67944 69.7115 8.74476 69.9973 8.87121C70.2831 8.99765 70.5394 9.18243 70.7496 9.4137C70.9598 9.64497 71.1194 9.91762 71.218 10.2142C71.3167 10.5107 71.3523 10.8246 71.3226 11.1357C71.3529 11.4471 71.3177 11.7615 71.2193 12.0585C71.1208 12.3555 70.9614 12.6286 70.7511 12.8603C70.5408 13.092 70.2844 13.2772 69.9983 13.4039C69.7122 13.5306 69.4028 13.5961 69.0899 13.5961C68.777 13.5961 68.4676 13.5306 68.1815 13.4039C67.8954 13.2772 67.639 13.092 67.4287 12.8603C67.2184 12.6286 67.059 12.3555 66.9605 12.0585C66.8621 11.7615 66.8269 11.4471 66.8572 11.1357ZM70.3611 11.1357C70.3611 10.1096 69.9002 9.50953 69.0912 9.50953C68.2791 9.50953 67.8223 10.1096 67.8223 11.1357C67.8223 12.1701 68.2791 12.7655 69.0912 12.7655C69.9002 12.7655 70.3611 12.166 70.3611 11.1357Z" fill="white"/>
<path d="M72.3062 12.1659C72.3062 11.3138 72.9406 10.8226 74.0668 10.7527L75.3491 10.6788V10.2702C75.3491 9.77024 75.0185 9.48792 74.38 9.48792C73.8584 9.48792 73.4971 9.67939 73.3934 10.0141H72.4889C72.5844 9.20097 73.3492 8.67944 74.4231 8.67944C75.6099 8.67944 76.2793 9.27026 76.2793 10.2702V13.5047H75.3799V12.8394H75.306C75.156 13.078 74.9453 13.2726 74.6955 13.4032C74.4457 13.5337 74.1657 13.5957 73.8841 13.5827C73.6854 13.6033 73.4845 13.5821 73.2945 13.5204C73.1045 13.4587 72.9295 13.3579 72.7808 13.2244C72.6321 13.0909 72.5131 12.9277 72.4313 12.7454C72.3496 12.5631 72.3069 12.3657 72.3062 12.1659ZM75.3491 11.7614V11.3656L74.1931 11.4396C73.5412 11.4832 73.2455 11.7049 73.2455 12.1223C73.2455 12.5483 73.6151 12.7963 74.1233 12.7963C74.2723 12.8113 74.4227 12.7963 74.5656 12.7521C74.7086 12.7078 74.8412 12.6352 74.9556 12.5387C75.07 12.4421 75.1638 12.3236 75.2314 12.19C75.299 12.0565 75.339 11.9107 75.3491 11.7614Z" fill="white"/>
<path d="M77.5068 11.1357C77.5068 9.63988 78.2758 8.69229 79.4718 8.69229C79.7677 8.67865 80.0613 8.74951 80.3184 8.89658C80.5754 9.04365 80.7853 9.26085 80.9235 9.5228H80.9933V6.92285H81.9276V13.5047H81.0323V12.7567H80.9584C80.8095 13.0169 80.5923 13.2314 80.3303 13.377C80.0683 13.5226 79.7714 13.5937 79.4718 13.5827C78.2676 13.5827 77.5068 12.6351 77.5068 11.1357ZM78.4719 11.1357C78.4719 12.1398 78.9452 12.7439 79.7367 12.7439C80.5242 12.7439 81.0108 12.131 81.0108 11.1398C81.0108 10.1532 80.519 9.53157 79.7367 9.53157C78.9503 9.53157 78.4719 10.1398 78.4719 11.1357Z" fill="white"/>
<path d="M85.7928 11.1356C85.763 10.8245 85.7986 10.5107 85.8973 10.2141C85.9959 9.91759 86.1555 9.64495 86.3657 9.41369C86.5758 9.18243 86.8321 8.99765 87.1178 8.8712C87.4036 8.74476 87.7127 8.67944 88.0252 8.67944C88.3377 8.67944 88.6468 8.74476 88.9326 8.8712C89.2184 8.99765 89.4746 9.18243 89.6848 9.41369C89.895 9.64495 90.0545 9.91759 90.1532 10.2141C90.2518 10.5107 90.2874 10.8245 90.2577 11.1356C90.288 11.447 90.2528 11.7614 90.1544 12.0584C90.056 12.3554 89.8966 12.6285 89.6863 12.8602C89.4761 13.092 89.2197 13.2771 88.9336 13.4038C88.6475 13.5306 88.3381 13.596 88.0252 13.596C87.7123 13.596 87.4029 13.5306 87.1168 13.4038C86.8307 13.2771 86.5743 13.092 86.3641 12.8602C86.1538 12.6285 85.9944 12.3554 85.896 12.0584C85.7976 11.7614 85.7625 11.447 85.7928 11.1356ZM89.2967 11.1356C89.2967 10.1095 88.8357 9.50944 88.0268 9.50944C87.2147 9.50944 86.7579 10.1095 86.7579 11.1356C86.7579 12.17 87.2147 12.7654 88.0268 12.7654C88.8358 12.7654 89.2967 12.1659 89.2967 11.1356Z" fill="white"/>
<path d="M91.5112 8.7706H92.4106V9.52261H92.4804C92.5988 9.25252 92.7986 9.0261 93.0518 8.87492C93.305 8.72374 93.5991 8.65533 93.893 8.67922C94.1234 8.6619 94.3547 8.69663 94.5698 8.78084C94.7848 8.86504 94.9782 8.99656 95.1356 9.16565C95.293 9.33474 95.4102 9.53707 95.4788 9.75765C95.5473 9.97823 95.5654 10.2114 95.5316 10.4399V13.5044H94.5973V10.6745C94.5973 9.91377 94.2668 9.53545 93.5758 9.53545C93.4194 9.52816 93.2633 9.55478 93.1182 9.61347C92.973 9.67217 92.8423 9.76155 92.7349 9.87549C92.6276 9.98944 92.5461 10.1252 92.4962 10.2736C92.4462 10.422 92.4289 10.5794 92.4455 10.7351V13.5044H91.5112V8.7706Z" fill="white"/>
<path d="M100.811 7.59229V8.79243H101.836V9.57935H100.811V12.0135C100.811 12.5094 101.015 12.7265 101.48 12.7265C101.599 12.7261 101.718 12.7189 101.836 12.705V13.4832C101.669 13.5132 101.499 13.5291 101.328 13.5309C100.289 13.5309 99.8755 13.1654 99.8755 12.2527V9.57931H99.124V8.79239H99.8755V7.59229H100.811Z" fill="white"/>
<path d="M103.112 6.92285H104.038V9.53156H104.112C104.236 9.25894 104.442 9.03124 104.7 8.87949C104.958 8.72774 105.257 8.65932 105.556 8.68355C105.785 8.67108 106.014 8.70934 106.227 8.79559C106.439 8.88183 106.63 9.01395 106.786 9.18251C106.942 9.35107 107.058 9.55192 107.127 9.77073C107.197 9.98954 107.217 10.2209 107.186 10.4483V13.5047H106.251V10.6788C106.251 9.9227 105.899 9.53976 105.239 9.53976C105.078 9.52659 104.916 9.54866 104.765 9.60444C104.614 9.66021 104.477 9.74834 104.363 9.86265C104.25 9.97696 104.163 10.1147 104.108 10.2662C104.053 10.4178 104.032 10.5794 104.047 10.7399V13.5046H103.112V6.92285Z" fill="white"/>
<path d="M112.633 12.2266C112.506 12.6592 112.231 13.0335 111.856 13.2838C111.481 13.5342 111.03 13.6447 110.582 13.5961C110.27 13.6043 109.96 13.5446 109.674 13.421C109.387 13.2975 109.131 13.1131 108.923 12.8806C108.715 12.6481 108.56 12.3731 108.469 12.0748C108.378 11.7764 108.353 11.4618 108.395 11.1527C108.354 10.8427 108.379 10.5274 108.47 10.2281C108.561 9.92884 108.715 9.6526 108.922 9.41809C109.129 9.18357 109.384 8.99627 109.67 8.86884C109.955 8.74142 110.265 8.67686 110.578 8.67952C111.895 8.67952 112.69 9.57942 112.69 11.0659V11.3919H109.347V11.4443C109.332 11.618 109.354 11.7929 109.411 11.9576C109.468 12.1224 109.559 12.2735 109.677 12.4012C109.796 12.5289 109.94 12.6304 110.1 12.6991C110.26 12.7679 110.433 12.8024 110.608 12.8004C110.831 12.8273 111.057 12.787 111.258 12.6848C111.459 12.5826 111.624 12.4231 111.734 12.2265L112.633 12.2266ZM109.347 10.701H111.738C111.75 10.5421 111.728 10.3825 111.675 10.2325C111.621 10.0824 111.537 9.94527 111.427 9.82978C111.317 9.71429 111.184 9.62303 111.037 9.56187C110.89 9.50072 110.732 9.47101 110.573 9.47466C110.411 9.47263 110.251 9.50297 110.101 9.56388C109.951 9.6248 109.815 9.71506 109.701 9.82935C109.587 9.94364 109.497 10.0796 109.436 10.2293C109.375 10.379 109.345 10.5394 109.347 10.701Z" fill="white"/>
<path d="M48.2788 26.3514H43.3027L42.1077 29.88H40L44.7133 16.8252H46.9031L51.6165 29.88H49.4728L48.2788 26.3514ZM43.8181 24.7232H47.7625L45.818 18.9966H45.7636L43.8181 24.7232Z" fill="white"/>
<path d="M61.7958 25.1214C61.7958 28.0791 60.2127 29.9794 57.8237 29.9794C57.2185 30.0111 56.6167 29.8717 56.087 29.5772C55.5574 29.2827 55.1214 28.845 54.829 28.3142H54.7838V33.0285H52.8301V20.3618H54.7212V21.9449H54.7571C55.063 21.4167 55.5063 20.9813 56.04 20.685C56.5737 20.3887 57.1777 20.2426 57.7878 20.2623C60.2034 20.2623 61.7958 22.1718 61.7958 25.1214ZM59.7877 25.1214C59.7877 23.1944 58.7918 21.9275 57.2724 21.9275C55.7796 21.9275 54.7756 23.221 54.7756 25.1214C54.7756 27.0391 55.7796 28.3235 57.2724 28.3235C58.7918 28.3235 59.7877 27.0658 59.7877 25.1214Z" fill="white"/>
<path d="M72.2719 25.1214C72.2719 28.0791 70.6888 29.9794 68.2998 29.9794C67.6946 30.0111 67.0927 29.8717 66.5631 29.5772C66.0335 29.2827 65.5975 28.845 65.3051 28.3142H65.2599V33.0285H63.3062V20.3618H65.1972V21.9449H65.2332C65.539 21.4167 65.9824 20.9813 66.5161 20.685C67.0497 20.3887 67.6537 20.2426 68.2638 20.2623C70.6795 20.2623 72.2719 22.1718 72.2719 25.1214ZM70.2637 25.1214C70.2637 23.1944 69.2679 21.9275 67.7485 21.9275C66.2557 21.9275 65.2517 23.221 65.2517 25.1214C65.2517 27.0391 66.2557 28.3235 67.7485 28.3235C69.2679 28.3235 70.2637 27.0658 70.2637 25.1214Z" fill="white"/>
<path d="M79.1952 26.2425C79.34 27.5371 80.5977 28.3871 82.3162 28.3871C83.963 28.3871 85.1477 27.5371 85.1477 26.3698C85.1477 25.3565 84.4332 24.7497 82.7413 24.3339L81.0494 23.9264C78.6522 23.3473 77.5393 22.2262 77.5393 20.407C77.5393 18.1546 79.5022 16.6074 82.2895 16.6074C85.0481 16.6074 86.9392 18.1546 87.0029 20.407H85.0307C84.9126 19.1042 83.8356 18.3178 82.2618 18.3178C80.688 18.3178 79.611 19.1135 79.611 20.2715C79.611 21.1945 80.2989 21.7376 81.9815 22.1533L83.4198 22.5065C86.0984 23.1399 87.2112 24.2159 87.2112 26.1254C87.2112 28.5678 85.2658 30.0975 82.1714 30.0975C79.2763 30.0975 77.3216 28.6037 77.1953 26.2424L79.1952 26.2425Z" fill="white"/>
<path d="M91.4274 18.1094V20.3618H93.2374V21.909H91.4274V27.1561C91.4274 27.9713 91.7898 28.3512 92.5855 28.3512C92.8003 28.3474 93.0149 28.3323 93.2281 28.306V29.8439C92.8704 29.9107 92.5068 29.941 92.143 29.9342C90.216 29.9342 89.4645 29.2104 89.4645 27.3645V21.909H88.0806V20.3618H89.4644V18.1094H91.4274Z" fill="white"/>
<path d="M94.2856 25.1212C94.2856 22.1265 96.0494 20.2446 98.7998 20.2446C101.559 20.2446 103.315 22.1264 103.315 25.1212C103.315 28.1241 101.569 29.9977 98.7998 29.9977C96.0319 29.9977 94.2856 28.1241 94.2856 25.1212ZM101.324 25.1212C101.324 23.0669 100.383 21.8544 98.7998 21.8544C97.2167 21.8544 96.2763 23.0761 96.2763 25.1212C96.2763 27.1837 97.2167 28.3869 98.7998 28.3869C100.383 28.3869 101.324 27.1837 101.324 25.1212Z" fill="white"/>
<path d="M104.926 20.3618H106.789V21.9818H106.834C106.96 21.4758 107.257 21.0287 107.674 20.7155C108.091 20.4023 108.603 20.2423 109.124 20.2622C109.349 20.2614 109.573 20.2858 109.793 20.335V22.1625C109.509 22.0756 109.212 22.0357 108.915 22.0444C108.631 22.0329 108.349 22.0829 108.086 22.1911C107.823 22.2993 107.587 22.463 107.394 22.671C107.2 22.8791 107.054 23.1265 106.965 23.3963C106.877 23.6662 106.847 23.952 106.879 24.2342V29.8797H104.926V20.3618Z" fill="white"/>
<path d="M118.801 27.0841C118.538 28.812 116.855 29.9977 114.702 29.9977C111.933 29.9977 110.215 28.1426 110.215 25.1664C110.215 22.1809 111.943 20.2446 114.62 20.2446C117.254 20.2446 118.909 22.0536 118.909 24.9395V25.6088H112.187V25.7269C112.156 26.0772 112.2 26.4301 112.316 26.7621C112.432 27.0941 112.617 27.3977 112.859 27.6527C113.101 27.9077 113.395 28.1082 113.72 28.241C114.046 28.3738 114.396 28.4358 114.747 28.4229C115.209 28.4661 115.672 28.3592 116.069 28.118C116.465 27.8768 116.772 27.5142 116.946 27.0841H118.801ZM112.196 24.2434H116.955C116.972 23.9284 116.925 23.6133 116.814 23.3176C116.704 23.022 116.534 22.7523 116.315 22.5255C116.096 22.2986 115.832 22.1196 115.541 21.9995C115.249 21.8794 114.936 21.8209 114.62 21.8277C114.302 21.8258 113.987 21.8869 113.692 22.0076C113.398 22.1282 113.13 22.3059 112.905 22.5305C112.68 22.7551 112.501 23.0221 112.379 23.3161C112.258 23.6101 112.195 23.9253 112.196 24.2434Z" fill="white"/>
<path d="M24.2549 13.5385C25.3059 13.5385 26.6234 12.8061 27.4079 11.8296C28.1184 10.9447 28.6365 9.70884 28.6365 8.47298C28.6365 8.30515 28.6217 8.13732 28.5921 8C27.4227 8.04577 26.0164 8.80865 25.1727 9.8309C24.5066 10.609 23.8997 11.8296 23.8997 13.0807C23.8997 13.2638 23.9293 13.4469 23.9441 13.5079C24.0181 13.5232 24.1365 13.5385 24.2549 13.5385ZM20.5543 32C21.9901 32 22.6266 31.0083 24.4178 31.0083C26.2385 31.0083 26.6382 31.9695 28.2368 31.9695C29.8059 31.9695 30.8569 30.4743 31.8487 29.0095C32.9589 27.3312 33.4178 25.6834 33.4474 25.6071C33.3438 25.5766 30.3388 24.3102 30.3388 20.7552C30.3388 17.6732 32.7072 16.2848 32.8405 16.178C31.2714 13.8589 28.8882 13.7978 28.2368 13.7978C26.4753 13.7978 25.0395 14.8964 24.1365 14.8964C23.1595 14.8964 21.8717 13.8589 20.347 13.8589C17.4457 13.8589 14.5 16.3306 14.5 20.9994C14.5 23.8983 15.5954 26.965 16.9424 28.9485C18.097 30.6268 19.1036 32 20.5543 32Z" fill="white"/>
</g>
<defs>
<clipPath id="clip0_251_1451">
<rect width="140" height="40" fill="white"/>
</clipPath>
</defs>
</svg>
