<svg width="27" height="32" viewBox="0 0 27 32" fill="none" xmlns="http://www.w3.org/2000/svg">
<path d="M22.4827 16.9102C22.4684 14.2883 23.6543 12.3094 26.0547 10.852C24.7116 8.9302 22.6827 7.87286 20.0036 7.66568C17.4675 7.46564 14.6955 9.14452 13.6811 9.14452C12.6094 9.14452 10.1518 7.73712 8.22292 7.73712C4.23649 7.80142 0 10.9163 0 17.2531C0 19.1249 0.342919 21.0586 1.02876 23.0542C1.94321 25.6761 5.24381 32.1058 8.68729 31.9987C10.4876 31.9558 11.7593 30.7199 14.1026 30.7199C16.3744 30.7199 17.5532 31.9987 19.5607 31.9987C23.0328 31.9487 26.019 26.1047 26.8906 23.4757C22.2326 21.2824 22.4827 17.046 22.4827 16.9102ZM18.4391 5.17951C20.3894 2.86481 20.2108 0.757281 20.1537 0C18.4319 0.100018 16.4387 1.17164 15.3028 2.49331C14.0526 3.90785 13.3167 5.65817 13.4739 7.62996C15.3385 7.77284 17.0388 6.81553 18.4391 5.17951Z" fill="black"/>
</svg>
