<svg width="30" height="30" viewBox="0 0 30 30" fill="none" xmlns="http://www.w3.org/2000/svg">
<g clip-path="url(#clip0_27_185)">
<path d="M23.75 3.75H22.5V2.5C22.5 1.8125 21.9375 1.25 21.25 1.25C20.5625 1.25 20 1.8125 20 2.5V3.75H10V2.5C10 1.8125 9.4375 1.25 8.75 1.25C8.0625 1.25 7.5 1.8125 7.5 2.5V3.75H6.25C4.8625 3.75 3.7625 4.875 3.7625 6.25L3.75 23.75C3.75 25.125 4.8625 26.25 6.25 26.25H23.75C25.125 26.25 26.25 25.125 26.25 23.75V6.25C26.25 4.875 25.125 3.75 23.75 3.75ZM22.5 23.75H7.5C6.8125 23.75 6.25 23.1875 6.25 22.5V10H23.75V22.5C23.75 23.1875 23.1875 23.75 22.5 23.75ZM10 12.5H13.75C14.4375 12.5 15 13.0625 15 13.75V17.5C15 18.1875 14.4375 18.75 13.75 18.75H10C9.3125 18.75 8.75 18.1875 8.75 17.5V13.75C8.75 13.0625 9.3125 12.5 10 12.5Z" fill="black"/>
</g>
<defs>
<clipPath id="clip0_27_185">
<rect width="30" height="30" fill="white"/>
</clipPath>
</defs>
</svg>
