<svg width="32" height="32" viewBox="0 0 32 32" fill="none" xmlns="http://www.w3.org/2000/svg">
<path d="M16 32C24.8366 32 32 24.8366 32 16C32 7.16344 24.8366 0 16 0C7.16344 0 0 7.16344 0 16C0 24.8366 7.16344 32 16 32Z" fill="#3C5A99"/>
<path d="M17.2438 23.9988V16.7113H19.7001L20.0688 13.8582H17.2438V12.0426C17.2438 11.2176 17.472 10.6582 18.6532 10.6582H20.1501V8.11445C19.8907 8.08008 18.997 8.00195 17.9563 8.00195C15.7845 8.00195 14.297 9.32695 14.297 11.7613V13.8613H11.8501V16.7145H14.297V23.9988H17.2438Z" fill="white"/>
</svg>
