<svg width="28" height="28" viewBox="0 0 28 28" fill="none" xmlns="http://www.w3.org/2000/svg">
<g clip-path="url(#clip0_1149_3532)">
<path d="M9.3335 10.5H18.6668" stroke="#39B980" stroke-width="1.75" stroke-linecap="round" stroke-linejoin="round"/>
<path d="M9.3335 15.167H16.3335" stroke="#39B980" stroke-width="1.75" stroke-linecap="round" stroke-linejoin="round"/>
<path d="M16.9167 21.5837L14 24.5003L10.5 21.0003H7C6.07174 21.0003 5.1815 20.6316 4.52513 19.9752C3.86875 19.3188 3.5 18.4286 3.5 17.5003V8.16699C3.5 7.23873 3.86875 6.3485 4.52513 5.69212C5.1815 5.03574 6.07174 4.66699 7 4.66699H21C21.9283 4.66699 22.8185 5.03574 23.4749 5.69212C24.1313 6.3485 24.5 7.23873 24.5 8.16699V13.417" stroke="#39B980" stroke-width="1.75" stroke-linecap="round" stroke-linejoin="round"/>
<path d="M22.1665 25.667V25.6787" stroke="#39B980" stroke-width="1.75" stroke-linecap="round" stroke-linejoin="round"/>
<path d="M22.1665 22.1664C22.6895 22.1647 23.1968 21.9876 23.6073 21.6635C24.0178 21.3394 24.3076 20.8869 24.4305 20.3785C24.5533 19.8701 24.5021 19.3352 24.285 18.8594C24.0678 18.3836 23.6974 17.9944 23.2328 17.7541C22.7687 17.5163 22.2378 17.4426 21.7264 17.5449C21.2151 17.6472 20.7534 17.9195 20.4165 18.3176" stroke="#39B980" stroke-width="1.75" stroke-linecap="round" stroke-linejoin="round"/>
</g>
<defs>
<clipPath id="clip0_1149_3532">
<rect width="28" height="28" fill="white"/>
</clipPath>
</defs>
</svg>
