<svg width="28" height="28" viewBox="0 0 28 28" fill="none" xmlns="http://www.w3.org/2000/svg">
<g clip-path="url(#clip0_288_1390)">
<path d="M16.3333 9.33317C17.622 9.33317 18.6667 8.2885 18.6667 6.99984C18.6667 5.71117 17.622 4.6665 16.3333 4.6665C15.0447 4.6665 14 5.71117 14 6.99984C14 8.2885 15.0447 9.33317 16.3333 9.33317Z" stroke="black" stroke-width="1.75" stroke-linecap="round" stroke-linejoin="round"/>
<path d="M4.6665 7H13.9998" stroke="black" stroke-width="1.75" stroke-linecap="round" stroke-linejoin="round"/>
<path d="M18.6665 7H23.3332" stroke="black" stroke-width="1.75" stroke-linecap="round" stroke-linejoin="round"/>
<path d="M9.33333 16.3332C10.622 16.3332 11.6667 15.2885 11.6667 13.9998C11.6667 12.7112 10.622 11.6665 9.33333 11.6665C8.04467 11.6665 7 12.7112 7 13.9998C7 15.2885 8.04467 16.3332 9.33333 16.3332Z" stroke="black" stroke-width="1.75" stroke-linecap="round" stroke-linejoin="round"/>
<path d="M4.6665 14H6.99984" stroke="black" stroke-width="1.75" stroke-linecap="round" stroke-linejoin="round"/>
<path d="M11.6665 14H23.3332" stroke="black" stroke-width="1.75" stroke-linecap="round" stroke-linejoin="round"/>
<path d="M19.8333 23.3332C21.122 23.3332 22.1667 22.2885 22.1667 20.9998C22.1667 19.7112 21.122 18.6665 19.8333 18.6665C18.5447 18.6665 17.5 19.7112 17.5 20.9998C17.5 22.2885 18.5447 23.3332 19.8333 23.3332Z" stroke="black" stroke-width="1.75" stroke-linecap="round" stroke-linejoin="round"/>
<path d="M4.6665 21H17.4998" stroke="black" stroke-width="1.75" stroke-linecap="round" stroke-linejoin="round"/>
<path d="M22.1665 21H23.3332" stroke="black" stroke-width="1.75" stroke-linecap="round" stroke-linejoin="round"/>
</g>
<defs>
<clipPath id="clip0_288_1390">
<rect width="28" height="28" fill="white"/>
</clipPath>
</defs>
</svg>
