<svg width="32" height="32" viewBox="0 0 32 32" fill="none" xmlns="http://www.w3.org/2000/svg">
<path d="M31.6888 12.8664H30.4V12.8H16V19.2H25.0424C23.7232 22.9256 20.1784 25.6 16 25.6C10.6984 25.6 6.4 21.3016 6.4 16C6.4 10.6984 10.6984 6.4 16 6.4C18.4472 6.4 20.6736 7.3232 22.3688 8.8312L26.8944 4.3056C24.0368 1.6424 20.2144 0 16 0C7.164 0 0 7.164 0 16C0 24.836 7.164 32 16 32C24.836 32 32 24.836 32 16C32 14.9272 31.8896 13.88 31.6888 12.8664Z" fill="#FFC107"/>
<path d="M1.84473 8.5528L7.10153 12.408C8.52393 8.8864 11.9687 6.4 15.9999 6.4C18.4471 6.4 20.6735 7.3232 22.3687 8.8312L26.8943 4.3056C24.0367 1.6424 20.2143 0 15.9999 0C9.85433 0 4.52473 3.4696 1.84473 8.5528Z" fill="#FF3D00"/>
<path d="M15.9999 32C20.1327 32 23.8879 30.4184 26.7271 27.8464L21.7751 23.656C20.1687 24.8728 18.1719 25.6 15.9999 25.6C11.8383 25.6 8.30466 22.9464 6.97346 19.2432L1.75586 23.2632C4.40386 28.4448 9.78146 32 15.9999 32Z" fill="#4CAF50"/>
<path d="M31.6888 12.8662H30.4V12.7998H16V19.1998H25.0424C24.4088 20.9894 23.2576 22.5326 21.7728 23.6566C21.7736 23.6558 21.7744 23.6558 21.7752 23.655L26.7272 27.8454C26.3768 28.1638 32 23.9998 32 15.9998C32 14.927 31.8896 13.8798 31.6888 12.8662Z" fill="#1976D2"/>
</svg>
