<svg width="24" height="24" viewBox="0 0 24 24" fill="none" xmlns="http://www.w3.org/2000/svg">
<path fill-rule="evenodd" clip-rule="evenodd" d="M20.16 12.1932C20.16 11.5905 20.1059 11.0109 20.0055 10.4546H12V13.7425H16.5745C16.3775 14.805 15.7786 15.7053 14.8784 16.308V18.4407H17.6254C19.2327 16.9609 20.16 14.7819 20.16 12.1932Z" fill="#4285F4"/>
<path fill-rule="evenodd" clip-rule="evenodd" d="M12 20.5C14.295 20.5 16.2191 19.7389 17.6255 18.4407L14.8784 16.308C14.1173 16.818 13.1436 17.1193 12 17.1193C9.78612 17.1193 7.91226 15.6241 7.24384 13.615H4.40407V15.8173C5.80271 18.5953 8.67726 20.5 12 20.5Z" fill="#34A853"/>
<path fill-rule="evenodd" clip-rule="evenodd" d="M7.24385 13.6151C7.07385 13.105 6.97726 12.5603 6.97726 12C6.97726 11.4398 7.07385 10.895 7.24385 10.385V8.18277H4.40407C3.82839 9.33027 3.49998 10.6285 3.49998 12C3.49998 13.3716 3.82839 14.6698 4.40407 15.8173L7.24385 13.6151Z" fill="#FBBC05"/>
<path fill-rule="evenodd" clip-rule="evenodd" d="M12 6.88072C13.2479 6.88072 14.3684 7.30958 15.2493 8.15186L17.6873 5.7139C16.2152 4.3423 14.2911 3.50003 12 3.50003C8.67726 3.50003 5.80271 5.40481 4.40407 8.18277L7.24384 10.385C7.91225 8.37595 9.78612 6.88072 12 6.88072Z" fill="#EA4335"/>
</svg>
