<svg width="24" height="22" viewBox="0 0 24 22" fill="none" xmlns="http://www.w3.org/2000/svg">
<path d="M20.75 11.6673L12 20.3333L3.25003 11.6673C2.67288 11.1057 2.21828 10.4306 1.91483 9.6847C1.61139 8.93876 1.46568 8.13807 1.48689 7.33305C1.50809 6.52803 1.69575 5.73612 2.03804 5.00719C2.38034 4.27826 2.86985 3.62809 3.47576 3.09764C4.08167 2.56718 4.79085 2.16793 5.55864 1.92502C6.32643 1.68211 7.1362 1.60081 7.93695 1.68623C8.73771 1.77165 9.51211 2.02195 10.2114 2.42135C10.9107 2.82076 11.5196 3.36063 12 4.00696C12.4825 3.36532 13.0922 2.83017 13.791 2.435C14.4898 2.03983 15.2626 1.79315 16.0611 1.7104C16.8596 1.62765 17.6666 1.71061 18.4316 1.95409C19.1966 2.19756 19.9031 2.59631 20.5068 3.12539C21.1106 3.65446 21.5987 4.30246 21.9405 5.02884C22.2823 5.75521 22.4706 6.54433 22.4934 7.34679C22.5162 8.14925 22.3732 8.94779 22.0732 9.69242C21.7732 10.4371 21.3228 11.1118 20.75 11.6743" stroke="#39B980" stroke-width="1.75" stroke-linecap="round" stroke-linejoin="round"/>
</svg>
