<svg width="28" height="28" viewBox="0 0 28 28" fill="none" xmlns="http://www.w3.org/2000/svg">
<g clip-path="url(#clip0_1149_3525)">
<path d="M3.5 14C3.5 15.3789 3.77159 16.7443 4.29926 18.0182C4.82694 19.2921 5.60036 20.4496 6.57538 21.4246C7.55039 22.3996 8.70791 23.1731 9.98182 23.7007C11.2557 24.2284 12.6211 24.5 14 24.5C15.3789 24.5 16.7443 24.2284 18.0182 23.7007C19.2921 23.1731 20.4496 22.3996 21.4246 21.4246C22.3996 20.4496 23.1731 19.2921 23.7007 18.0182C24.2284 16.7443 24.5 15.3789 24.5 14C24.5 12.6211 24.2284 11.2557 23.7007 9.98182C23.1731 8.70791 22.3996 7.55039 21.4246 6.57538C20.4496 5.60036 19.2921 4.82694 18.0182 4.29927C16.7443 3.77159 15.3789 3.5 14 3.5C12.6211 3.5 11.2557 3.77159 9.98182 4.29927C8.70791 4.82694 7.55039 5.60036 6.57538 6.57538C5.60036 7.55039 4.82694 8.70791 4.29926 9.98182C3.77159 11.2557 3.5 12.6211 3.5 14Z" stroke="#39B980" stroke-width="1.75" stroke-linecap="round" stroke-linejoin="round"/>
<path d="M14 19.833V19.8447" stroke="#39B980" stroke-width="1.75" stroke-linecap="round" stroke-linejoin="round"/>
<path d="M13.9998 15.7504C13.9784 15.3716 14.0805 14.9962 14.2909 14.6805C14.5014 14.3649 14.8086 14.1262 15.1665 14.0004C15.605 13.8327 15.9986 13.5655 16.3163 13.2198C16.634 12.8741 16.8672 12.4594 16.9974 12.0084C17.1276 11.5573 17.1513 11.0822 17.0667 10.6204C16.9821 10.1586 16.7914 9.72271 16.5097 9.34712C16.228 8.97153 15.863 8.66645 15.4433 8.45591C15.0237 8.24537 14.5609 8.1351 14.0915 8.1338C13.622 8.1325 13.1586 8.24019 12.7378 8.44841C12.317 8.65662 11.9503 8.95967 11.6665 9.33369" stroke="#39B980" stroke-width="1.75" stroke-linecap="round" stroke-linejoin="round"/>
</g>
<defs>
<clipPath id="clip0_1149_3525">
<rect width="28" height="28" fill="white"/>
</clipPath>
</defs>
</svg>
