<svg width="267" height="33" viewBox="0 0 267 33" fill="none" xmlns="http://www.w3.org/2000/svg">
<path d="M7.82617 16.4199V26H0.0566406V2.67383H7.82617V11.9199H15.2617V16.4199H7.82617ZM9.05664 7.19141V2.67383H21.2031V9.42383H13.8906V7.19141H9.05664ZM9.05664 26V21.3418H13.4336V19.0039H21.2031V26H9.05664ZM45.0742 0.212891V26H37.3047V0.212891H45.0742ZM32.3301 21.6406H36.0742V24.1543L34.2285 26H28.7617L24.5605 21.7988V11.5332L28.7617 7.33203H36.0742V11.9902H32.3301V21.6406ZM68.8047 7.33203V26H61.0352V7.33203H68.8047ZM56.3418 21.3418H59.8047V23.6621L57.5547 26H53.248L48.5723 21.3418V7.33203H56.3418V21.3418ZM73.9023 12.9922H89.4238V17.1934H73.9023V12.9922ZM94.5391 32.2227V7.33203H102.309V32.2227H94.5391ZM106.967 11.9902H103.539V9.63477L105.824 7.33203H110.078L114.754 11.9902V21.3418L110.078 26H103.539V21.6406H106.967V11.9902ZM129.52 26H122.629L118.27 21.6406V0.212891H126.039V21.3418H129.52V26ZM143.828 26V11.9902H132.771V9.66992L135.109 7.33203H146.764L151.422 11.9902V26H143.828ZM142.598 15.1367V18.3711H138.59V21.6406H142.598V23.6973L140.277 26H134.336L131.207 22.9238V18.248L134.336 15.1367H142.598ZM162.918 21.3418H168.051V26H159.824L155.148 21.3418V11.9902H153.602V7.33203H155.148V5.31055L162.918 2.67383V21.3418ZM164.148 11.9902V7.33203H168.332V11.9902H164.148ZM179.512 4.87109V26H171.725V11.9902H169.879V7.33203H171.725V4.57227L176.418 0.212891H185.137V4.87109H179.512ZM180.689 11.9902L180.742 7.33203H185.137V11.9902H180.689ZM207.812 21.3418L203.154 26H197.951V21.6406H199.885V11.9902H197.951V7.33203H203.154L207.812 11.9902V21.3418ZM194.699 21.6406H196.721V26H191.5L186.842 21.3418V11.9902L191.5 7.33203H196.721V11.9902H194.699V21.6406ZM223.65 11.9902H220.346V9.95117L222.947 7.33203H227.658L231.438 11.6914V16.5254H223.65V11.9902ZM211.328 26V7.33203H219.098V26H211.328ZM234.092 26V7.33203H241.879V26H234.092ZM246.273 11.9902H243.109V9.79297L245.553 7.33203H251.564L254.061 9.82812V26H246.273V11.9902ZM258.455 11.9902H255.291V9.82812L257.682 7.33203H262.428L266.225 11.1641V26H258.455V11.9902Z" fill="black"/>
</svg>
