<svg width="30" height="18" viewBox="0 0 30 18" fill="none" xmlns="http://www.w3.org/2000/svg">
<path fill-rule="evenodd" clip-rule="evenodd" d="M14.9053 15.7326C13.3266 17.0633 11.2787 17.8667 9.04092 17.8667C4.04776 17.8667 0 13.8671 0 8.93333C0 3.99959 4.04776 0 9.04092 0C11.2787 0 13.3266 0.803331 14.9053 2.13406C16.484 0.803331 18.5319 0 20.7697 0C25.7628 0 29.8106 3.99959 29.8106 8.93333C29.8106 13.8671 25.7628 17.8667 20.7697 17.8667C18.5319 17.8667 16.484 17.0633 14.9053 15.7326Z" fill="#ED0006"/>
<path fill-rule="evenodd" clip-rule="evenodd" d="M14.9053 15.7326C16.8492 14.0941 18.0818 11.6559 18.0818 8.93333C18.0818 6.21073 16.8492 3.77259 14.9053 2.13405C16.484 0.80333 18.5319 0 20.7697 0C25.7628 0 29.8106 3.99959 29.8106 8.93333C29.8106 13.8671 25.7628 17.8667 20.7697 17.8667C18.5319 17.8667 16.484 17.0633 14.9053 15.7326Z" fill="#F9A000"/>
<path fill-rule="evenodd" clip-rule="evenodd" d="M14.9055 15.7326C16.8494 14.0941 18.082 11.6559 18.082 8.93334C18.082 6.21076 16.8494 3.77263 14.9055 2.13409C12.9616 3.77263 11.729 6.21076 11.729 8.93334C11.729 11.6559 12.9616 14.0941 14.9055 15.7326Z" fill="#FF5E00"/>
</svg>
