<svg width="30" height="30" viewBox="0 0 30 30" fill="none" xmlns="http://www.w3.org/2000/svg">
<g clip-path="url(#clip0_26_155)">
<path d="M15 27.5C16.375 27.5 17.5 26.375 17.5 25H12.5C12.5 26.375 13.6125 27.5 15 27.5ZM22.5 20V13.75C22.5 9.9125 20.45 6.7 16.875 5.85V5C16.875 3.9625 16.0375 3.125 15 3.125C13.9625 3.125 13.125 3.9625 13.125 5V5.85C9.5375 6.7 7.5 9.9 7.5 13.75V20L5.8875 21.6125C5.1 22.4 5.65 23.75 6.7625 23.75H23.225C24.3375 23.75 24.9 22.4 24.1125 21.6125L22.5 20Z" fill="black"/>
</g>
<defs>
<clipPath id="clip0_26_155">
<rect width="30" height="30" fill="white"/>
</clipPath>
</defs>
</svg>
