<svg width="15" height="18" viewBox="0 0 15 18" fill="none" xmlns="http://www.w3.org/2000/svg">
<path fill-rule="evenodd" clip-rule="evenodd" d="M4.08855 16.9577L4.38285 15.0255L3.72726 15.0097H0.59668L2.77232 0.751563C2.7791 0.708387 2.80101 0.668307 2.83301 0.639795C2.86517 0.611283 2.90615 0.595642 2.94903 0.595642H8.22767C9.98022 0.595642 11.1896 0.972491 11.8209 1.71641C12.1169 2.0654 12.3055 2.43019 12.3967 2.83148C12.4924 3.25264 12.494 3.75576 12.4007 4.3695L12.3939 4.41415V4.80745L12.6899 4.9808C12.9391 5.1175 13.1373 5.27391 13.2892 5.45296C13.5424 5.75144 13.7062 6.13074 13.7754 6.58025C13.8469 7.04263 13.8233 7.593 13.7062 8.21603C13.5711 8.93258 13.3528 9.55675 13.0578 10.0674C12.7867 10.5379 12.4412 10.9283 12.0309 11.2307C11.6391 11.5181 11.1738 11.7362 10.6476 11.8758C10.1377 12.013 9.55635 12.0823 8.91873 12.0823H8.50794C8.21427 12.0823 7.92895 12.1916 7.70496 12.3876C7.48033 12.5877 7.33184 12.8611 7.28629 13.16L7.25523 13.334L6.7352 16.7397L6.71172 16.8646C6.70541 16.9042 6.69469 16.924 6.67893 16.9373C6.6649 16.9495 6.64472 16.9577 6.62502 16.9577H4.08855Z" fill="#28356A"/>
<path fill-rule="evenodd" clip-rule="evenodd" d="M12.9708 4.45953C12.9552 4.56364 12.9371 4.67003 12.9169 4.77936C12.2208 8.47355 9.83911 9.74975 6.79743 9.74975H5.24869C4.87668 9.74975 4.56315 10.0288 4.5053 10.4081L3.48778 17.0791C3.45011 17.3283 3.6358 17.5526 3.87887 17.5526H6.62577C6.95097 17.5526 7.2273 17.3084 7.27853 16.9768L7.30548 16.8326L7.82268 13.4404L7.85594 13.2543C7.90654 12.9216 8.1835 12.6772 8.50869 12.6772H8.91948C11.5808 12.6772 13.6642 11.5605 14.2732 8.32871C14.5274 6.9787 14.3958 5.85141 13.7227 5.05861C13.519 4.8196 13.2664 4.62116 12.9708 4.45953Z" fill="#298FC2"/>
<path fill-rule="evenodd" clip-rule="evenodd" d="M12.2423 4.15948C12.1359 4.12739 12.0262 4.09839 11.9136 4.07215C11.8004 4.04658 11.6846 4.02393 11.5652 4.00405C11.1477 3.93432 10.6901 3.90125 10.2 3.90125H6.06261C5.96062 3.90125 5.86383 3.92503 5.77729 3.96804C5.5864 4.06287 5.44469 4.24958 5.41032 4.47817L4.5301 10.2402L4.50488 10.4082C4.56273 10.0289 4.87626 9.7498 5.24828 9.7498H6.79702C9.83869 9.7498 12.2204 8.47295 12.9165 4.77942C12.9373 4.67009 12.9548 4.5637 12.9704 4.45959C12.7943 4.36298 12.6036 4.28037 12.3982 4.20999C12.3474 4.19256 12.2951 4.17578 12.2423 4.15948Z" fill="#22284F"/>
<path fill-rule="evenodd" clip-rule="evenodd" d="M5.41037 4.47819C5.44474 4.2496 5.58645 4.06289 5.77734 3.96872C5.86451 3.92554 5.96067 3.90176 6.06266 3.90176H10.2C10.6901 3.90176 11.1477 3.93499 11.5653 4.00473C11.6846 4.02444 11.8005 4.04725 11.9137 4.07283C12.0262 4.0989 12.1359 4.12806 12.2423 4.16C12.2951 4.17629 12.3475 4.19323 12.3987 4.21001C12.6041 4.2804 12.795 4.36365 12.9711 4.45962C13.1782 3.09446 12.9693 2.16496 12.2552 1.32329C11.4679 0.396562 10.047 0 8.22868 0H2.94989C2.5785 0 2.26166 0.279093 2.20428 0.659037L0.00562688 15.0638C-0.0377221 15.3488 0.174924 15.6059 0.452988 15.6059H3.71188L5.41037 4.47819Z" fill="#28356A"/>
</svg>
