<svg width="140" height="40" viewBox="0 0 140 40" fill="none" xmlns="http://www.w3.org/2000/svg">
<g clip-path="url(#clip0_251_1433)">
<path d="M133.077 0H6.92308C3.09957 0 0 3.09957 0 6.92308V33.0769C0 36.9004 3.09957 40 6.92308 40H133.077C136.9 40 140 36.9004 140 33.0769V6.92308C140 3.09957 136.9 0 133.077 0Z" fill="black"/>
<path d="M50.961 10.3928C50.961 11.2338 50.7508 11.9697 50.2251 12.4954C49.5943 13.1261 48.8584 13.4415 47.9123 13.4415C46.9661 13.4415 46.2302 13.1261 45.5995 12.4954C44.9687 11.8646 44.6533 11.1287 44.6533 10.1826C44.6533 9.2364 44.9687 8.50051 45.5995 7.86974C46.2302 7.23897 46.9661 6.92358 47.9123 6.92358C48.3328 6.92358 48.7533 7.02871 49.1738 7.23897C49.5943 7.44923 49.9097 7.65948 50.12 7.97487L49.5943 8.50051C49.1738 7.97487 48.6482 7.76461 47.9123 7.76461C47.2815 7.76461 46.6508 7.97487 46.2302 8.50051C45.7046 8.92102 45.4943 9.55179 45.4943 10.2877C45.4943 11.0236 45.7046 11.6544 46.2302 12.0749C46.7559 12.4954 47.2815 12.8108 47.9123 12.8108C48.6482 12.8108 49.1738 12.6005 49.6995 12.0749C50.0149 11.7595 50.2251 11.339 50.2251 10.8133H47.9123V10.0774H50.961C50.961 10.0774 50.961 10.2877 50.961 10.3928Z" fill="white" stroke="white" stroke-width="0.210256" stroke-miterlimit="10"/>
<path d="M55.7967 7.76373H52.9582V9.76117H55.5864V10.4971H52.9582V12.4945H55.7967V13.3355H52.1172V7.02783H55.7967V7.76373Z" fill="white" stroke="white" stroke-width="0.210256" stroke-miterlimit="10"/>
<path d="M59.2669 13.3355H58.4259V7.76373H56.6387V7.02783H61.0541V7.76373H59.2669V13.3355Z" fill="white" stroke="white" stroke-width="0.210256" stroke-miterlimit="10"/>
<path d="M64.1025 13.3355V7.02783H64.9436V13.3355H64.1025Z" fill="white" stroke="white" stroke-width="0.210256" stroke-miterlimit="10"/>
<path d="M68.5179 13.3355H67.6768V7.76373H65.8896V7.02783H70.1999V7.76373H68.4127V13.3355H68.5179Z" fill="white" stroke="white" stroke-width="0.210256" stroke-miterlimit="10"/>
<path d="M78.5049 12.4944C77.8741 13.1252 77.1382 13.4406 76.1921 13.4406C75.2459 13.4406 74.51 13.1252 73.8793 12.4944C73.2485 11.8636 72.9331 11.1277 72.9331 10.1816C72.9331 9.23543 73.2485 8.49953 73.8793 7.86876C74.51 7.23799 75.2459 6.92261 76.1921 6.92261C77.1382 6.92261 77.8741 7.23799 78.5049 7.86876C79.1357 8.49953 79.4511 9.23543 79.4511 10.1816C79.4511 11.1277 79.1357 11.8636 78.5049 12.4944ZM74.51 11.9688C74.9305 12.3893 75.5613 12.7047 76.1921 12.7047C76.8228 12.7047 77.4536 12.4944 77.8741 11.9688C78.2946 11.5482 78.61 10.9175 78.61 10.1816C78.61 9.44568 78.3998 8.81491 77.8741 8.3944C77.4536 7.97389 76.8228 7.65851 76.1921 7.65851C75.5613 7.65851 74.9305 7.86876 74.51 8.3944C74.0895 8.81491 73.7741 9.44568 73.7741 10.1816C73.7741 10.9175 73.9844 11.5482 74.51 11.9688Z" fill="white" stroke="white" stroke-width="0.210256" stroke-miterlimit="10"/>
<path d="M80.6072 13.3355V7.02783H81.5533L84.6021 11.9689V10.7073V7.02783H85.4431V13.3355H84.6021L81.3431 8.18424V9.44578V13.3355H80.6072Z" fill="white" stroke="white" stroke-width="0.210256" stroke-miterlimit="10"/>
<path d="M69.8698 22.0904C67.6003 22.0904 65.8036 23.7926 65.8036 26.1566C65.8036 28.4261 67.6003 30.2228 69.8698 30.2228C72.1393 30.2228 73.936 28.5207 73.936 26.1566C73.936 23.698 72.1393 22.0904 69.8698 22.0904ZM69.8698 28.5207C68.6405 28.5207 67.6003 27.4805 67.6003 26.0621C67.6003 24.6436 68.6405 23.6034 69.8698 23.6034C71.0991 23.6034 72.1393 24.5491 72.1393 26.0621C72.1393 27.4805 71.0991 28.5207 69.8698 28.5207ZM61.0755 22.0904C58.806 22.0904 57.0093 23.7926 57.0093 26.1566C57.0093 28.4261 58.806 30.2228 61.0755 30.2228C63.345 30.2228 65.1417 28.5207 65.1417 26.1566C65.1417 23.698 63.345 22.0904 61.0755 22.0904ZM61.0755 28.5207C59.8462 28.5207 58.806 27.4805 58.806 26.0621C58.806 24.6436 59.8462 23.6034 61.0755 23.6034C62.3048 23.6034 63.345 24.5491 63.345 26.0621C63.345 27.4805 62.3048 28.5207 61.0755 28.5207ZM50.579 23.3198V25.0219H54.6452C54.5507 25.9675 54.1724 26.724 53.6996 27.1968C53.1322 27.7642 52.1866 28.4261 50.579 28.4261C48.0258 28.4261 46.1346 26.4403 46.1346 23.8871C46.1346 21.3339 48.1204 19.3481 50.579 19.3481C51.9029 19.3481 52.9431 19.9155 53.6996 20.5774L54.9289 19.3481C53.8887 18.4025 52.5648 17.646 50.6736 17.646C47.2693 17.646 44.3379 20.4829 44.3379 23.8871C44.3379 27.2914 47.2693 30.1283 50.6736 30.1283C52.5648 30.1283 53.8887 29.5609 55.0235 28.3316C56.1582 27.1968 56.5365 25.5893 56.5365 24.3599C56.5365 23.9817 56.5365 23.6034 56.4419 23.3198H50.579ZM93.5105 24.6436C93.1322 23.698 92.1866 22.0904 90.1062 22.0904C88.0258 22.0904 86.3237 23.698 86.3237 26.1566C86.3237 28.4261 88.0258 30.2228 90.2953 30.2228C92.092 30.2228 93.2268 29.0881 93.605 28.4261L92.2812 27.4805C91.8083 28.1424 91.241 28.6153 90.2953 28.6153C89.3497 28.6153 88.7823 28.237 88.3095 27.3859L93.6996 25.1164L93.5105 24.6436ZM88.0258 25.9675C88.0258 24.4545 89.2551 23.6034 90.1062 23.6034C90.7682 23.6034 91.4301 23.9817 91.6192 24.4545L88.0258 25.9675ZM83.5814 29.8446H85.3781V18.0242H83.5814V29.8446ZM80.7445 22.9415C80.2717 22.4687 79.5152 21.9959 78.5696 21.9959C76.5838 21.9959 74.6925 23.7926 74.6925 26.0621C74.6925 28.3316 76.4892 30.0337 78.5696 30.0337C79.5152 30.0337 80.2717 29.5609 80.6499 29.0881H80.7445V29.6555C80.7445 31.1685 79.8935 32.0195 78.5696 32.0195C77.5294 32.0195 76.7729 31.263 76.5838 30.6011L75.0708 31.263C75.5436 32.3032 76.6783 33.6271 78.6641 33.6271C80.7445 33.6271 82.4466 32.3978 82.4466 29.4663V22.2796H80.7445V22.9415ZM78.6641 28.5207C77.4348 28.5207 76.3946 27.4805 76.3946 26.0621C76.3946 24.6436 77.4348 23.6034 78.6641 23.6034C79.8934 23.6034 80.8391 24.6436 80.8391 26.0621C80.8391 27.4805 79.8934 28.5207 78.6641 28.5207ZM101.737 18.0242H97.4821V29.8446H99.2788V25.4001H101.737C103.723 25.4001 105.614 23.9817 105.614 21.7122C105.614 19.4427 103.723 18.0242 101.737 18.0242ZM101.832 23.698H99.2788V19.6318H101.832C103.156 19.6318 103.912 20.7666 103.912 21.6176C103.818 22.6578 103.061 23.698 101.832 23.698ZM112.707 21.9959C111.383 21.9959 110.059 22.5633 109.586 23.7926L111.194 24.4545C111.572 23.7926 112.139 23.6034 112.801 23.6034C113.747 23.6034 114.598 24.1708 114.693 25.1164V25.211C114.409 25.0219 113.652 24.7382 112.896 24.7382C111.194 24.7382 109.492 25.6838 109.492 27.3859C109.492 28.9935 110.91 30.0337 112.423 30.0337C113.652 30.0337 114.22 29.4663 114.693 28.899H114.787V29.8446H116.489V25.3056C116.3 23.2252 114.693 21.9959 112.707 21.9959ZM112.518 28.5207C111.95 28.5207 111.099 28.237 111.099 27.4805C111.099 26.5349 112.139 26.2512 112.99 26.2512C113.747 26.2512 114.125 26.4403 114.598 26.6294C114.409 27.7642 113.463 28.5207 112.518 28.5207ZM122.447 22.2796L120.461 27.3859H120.366L118.286 22.2796H116.395L119.515 29.4663L117.719 33.438H119.515L124.338 22.2796H122.447ZM106.56 29.8446H108.357V18.0242H106.56V29.8446Z" fill="white"/>
<path d="M12.4665 8.63965C12.1866 8.91958 12 9.38612 12 9.94598V30.5673C12 31.1272 12.1866 31.5937 12.4665 31.8736L12.5599 31.967L24.1302 20.3966V20.3033V20.21L12.4665 8.63965Z" fill="url(#paint0_linear_251_1433)"/>
<path d="M27.9558 24.3158L24.1301 20.4901V20.3035V20.2102L27.9558 16.3845L28.0491 16.4778L32.6213 19.0905C33.9276 19.837 33.9276 21.05 32.6213 21.7965L27.9558 24.3158Z" fill="url(#paint1_linear_251_1433)"/>
<path d="M28.0494 24.2225L24.1305 20.3035L12.4668 31.9671C12.9333 32.4337 13.5865 32.4337 14.4263 32.0604L28.0494 24.2225Z" fill="url(#paint2_linear_251_1433)"/>
<path d="M28.0494 16.3844L14.4263 8.63974C13.5865 8.17319 12.9333 8.2665 12.4668 8.73305L24.1305 20.3034L28.0494 16.3844Z" fill="url(#paint3_linear_251_1433)"/>
<path opacity="0.2" d="M27.9561 24.1296L14.4263 31.781C13.6798 32.2475 13.0267 32.1542 12.5601 31.781L12.4668 31.8743L12.5601 31.9676C13.0267 32.3409 13.6798 32.4342 14.4263 31.9676L27.9561 24.1296Z" fill="black"/>
<path opacity="0.12" d="M12.467 31.7809C12.1871 31.501 12.0938 31.0345 12.0938 30.4746V30.5679C12.0938 31.1278 12.2804 31.5943 12.5603 31.8742V31.7809H12.467Z" fill="black"/>
<path opacity="0.12" d="M32.6218 21.5165L27.9563 24.1291L28.0496 24.2225L32.6218 21.6098C33.2749 21.2366 33.5549 20.77 33.5549 20.3035C33.5549 20.77 33.1816 21.1432 32.6218 21.5165Z" fill="black"/>
<path opacity="0.25" d="M14.4265 8.73306L32.6217 19.0904C33.1815 19.4636 33.5549 19.8369 33.5549 20.3034C33.5549 19.8369 33.2748 19.3703 32.6217 18.9971L14.4265 8.63975C13.1202 7.89328 12.0938 8.54644 12.0938 10.0394V10.1327C12.0938 8.63975 13.1202 7.98658 14.4265 8.73306Z" fill="white"/>
</g>
<defs>
<linearGradient id="paint0_linear_251_1433" x1="23.1035" y1="9.76841" x2="7.44399" y2="25.4279" gradientUnits="userSpaceOnUse">
<stop stop-color="#00A0FF"/>
<stop offset="0.00657445" stop-color="#00A1FF"/>
<stop offset="0.2601" stop-color="#00BEFF"/>
<stop offset="0.5122" stop-color="#00D2FF"/>
<stop offset="0.7604" stop-color="#00DFFF"/>
<stop offset="1" stop-color="#00E3FF"/>
</linearGradient>
<linearGradient id="paint1_linear_251_1433" x1="34.3329" y1="20.3048" x2="11.755" y2="20.3048" gradientUnits="userSpaceOnUse">
<stop stop-color="#FFE000"/>
<stop offset="0.4087" stop-color="#FFBD00"/>
<stop offset="0.7754" stop-color="#FFA500"/>
<stop offset="1" stop-color="#FF9C00"/>
</linearGradient>
<linearGradient id="paint2_linear_251_1433" x1="25.9285" y1="22.4459" x2="4.69293" y2="43.6815" gradientUnits="userSpaceOnUse">
<stop stop-color="#FF3A44"/>
<stop offset="1" stop-color="#C31162"/>
</linearGradient>
<linearGradient id="paint3_linear_251_1433" x1="9.57169" y1="1.80596" x2="19.0543" y2="11.2885" gradientUnits="userSpaceOnUse">
<stop stop-color="#32A071"/>
<stop offset="0.0685" stop-color="#2DA771"/>
<stop offset="0.4762" stop-color="#15CF74"/>
<stop offset="0.8009" stop-color="#06E775"/>
<stop offset="1" stop-color="#00F076"/>
</linearGradient>
<clipPath id="clip0_251_1433">
<rect width="140" height="40" fill="white"/>
</clipPath>
</defs>
</svg>
