<svg width="24" height="24" viewBox="0 0 24 24" fill="none" xmlns="http://www.w3.org/2000/svg">
<path d="M5.29321 6.00011C3.83784 7.62556 3.02301 9.72468 3.00056 11.9064C2.94524 16.8915 7.0154 20.9907 12.0006 21.0001C16.9787 21.0095 21.0006 16.9768 21.0006 12.0001C21.0006 7.09979 17.0841 3.11214 12.2115 3.00011C12.1841 2.99922 12.1567 3.00387 12.1312 3.01378C12.1056 3.02368 12.0822 3.03864 12.0625 3.05776C12.0429 3.07687 12.0272 3.09976 12.0166 3.12505C12.0059 3.15034 12.0005 3.17751 12.0006 3.20495V7.12511" stroke="black" stroke-width="1.5" stroke-linecap="round" stroke-linejoin="round"/>
<path d="M10.9397 13.0609L7.23658 7.76403C7.18534 7.69064 7.16158 7.60156 7.16944 7.5124C7.17731 7.42325 7.2163 7.3397 7.27959 7.27642C7.34288 7.21313 7.42642 7.17413 7.51558 7.16627C7.60473 7.1584 7.69381 7.18217 7.7672 7.2334L13.0641 10.9365C13.389 11.1705 13.6087 11.523 13.6757 11.9178C13.7427 12.3125 13.6516 12.7177 13.4221 13.0459C13.1927 13.374 12.8433 13.5985 12.4495 13.671C12.0557 13.7435 11.6492 13.658 11.318 13.4331C11.1715 13.3316 11.0436 13.2057 10.9397 13.0609Z" fill="black"/>
</svg>
