<svg xmlns="http://www.w3.org/2000/svg" width="40" height="40" viewBox="0 0 40 40" fill="none">
<g clip-path="url(#clip0_0_2967)">
<path d="M11.6671 30C9.58754 30 7.59318 29.2098 6.12272 27.8033C4.65227 26.3968 3.82617 24.4891 3.82617 22.5C3.82617 20.5109 4.65227 18.6032 6.12272 17.1967C7.59318 15.7902 9.58754 15 11.6671 15C12.1582 12.812 13.595 10.8891 15.6614 9.65452C16.6846 9.04321 17.8315 8.61925 19.0367 8.40685C20.2419 8.19446 21.4818 8.1978 22.6856 8.41667C23.8894 8.63554 25.0335 9.06566 26.0526 9.68247C27.0717 10.2993 27.9458 11.0907 28.625 12.0115C29.3043 12.9324 29.7753 13.9646 30.0113 15.0493C30.2473 16.134 30.2436 17.2499 30.0004 18.3333H31.6671C33.2142 18.3333 34.6979 18.9479 35.7919 20.0419C36.8858 21.1358 37.5004 22.6196 37.5004 24.1667C37.5004 25.7138 36.8858 27.1975 35.7919 28.2915C34.6979 29.3854 33.2142 30 31.6671 30H30.0004" stroke="#AAAAAA" stroke-width="1.5" stroke-linecap="round" stroke-linejoin="round"/>
<path d="M15 25L20 20L25 25" stroke="#AAAAAA" stroke-width="1.5" stroke-linecap="round" stroke-linejoin="round"/>
<path d="M20 20V35" stroke="#AAAAAA" stroke-width="1.5" stroke-linecap="round" stroke-linejoin="round"/>
</g>
<defs>
<clipPath id="clip0_0_2967">
<rect width="40" height="40" fill="white"/>
</clipPath>
</defs>
</svg>