<svg width="33" height="21" viewBox="0 0 33 21" fill="none" xmlns="http://www.w3.org/2000/svg">
<path fill-rule="evenodd" clip-rule="evenodd" d="M10.0575 15.538C10.263 15.4313 10.6123 15.2912 10.9824 15.2912C11.8317 15.2912 12.2908 15.8647 12.2908 16.9319C12.2908 18.1787 11.6745 18.7856 10.681 18.7856C10.3178 18.7856 9.75608 18.6723 9.34497 18.4585V13.8042L10.0575 13.6375V15.538ZM10.0508 18.2119C10.2698 18.3053 10.5098 18.3186 10.6811 18.3186C11.188 18.3186 11.5716 18.0119 11.5716 16.932C11.5716 16.0848 11.2565 15.8114 10.7975 15.8114C10.5233 15.8114 10.3249 15.8848 10.0508 16.0315V18.2119ZM2.75407 15.3777H2.80205L3.73356 18.7055H4.47339L5.58338 13.9773H4.78175L4.083 17.5051H4.03526L3.08279 13.9773H2.47309L1.58253 17.5051H1.53455L0.767213 13.9773H0L1.10987 18.7055H1.84957L2.75407 15.3777ZM8.61916 18.4786V17.9718C8.24234 18.1919 7.89993 18.3186 7.53002 18.3186C6.82435 18.3186 6.48873 17.965 6.48873 17.1649H8.72191V16.9183C8.72191 15.8315 8.19436 15.2912 7.33821 15.2912C6.31062 15.2912 5.78307 16.0248 5.78307 17.0382C5.78307 18.092 6.25573 18.7856 7.40655 18.7856C7.89993 18.7856 8.31092 18.6522 8.61916 18.4786ZM8.07107 16.7182H6.5026C6.57772 16.0515 6.89953 15.7381 7.31767 15.7381C7.68758 15.7381 8.03714 16.0179 8.07107 16.7182ZM15.4423 17.7052H15.4079L13.8734 13.9773H13.0445V18.7055H13.6611V15.3579H13.7226L15.1204 18.7055H15.5586L16.9563 15.2779H17.0181V18.7055H17.7579V13.9773H16.9083L15.4423 17.7052ZM18.5116 17.0382C18.5116 15.8712 19.1693 15.2912 20.0735 15.2912C20.9779 15.2912 21.6357 15.8712 21.6357 17.0382C21.6357 18.1787 21.0122 18.7856 20.0735 18.7856C19.1349 18.7856 18.5116 18.1787 18.5116 17.0382ZM20.9162 17.0382C20.9162 16.1381 20.5392 15.7581 20.0735 15.7581C19.6213 15.7581 19.2308 16.1381 19.2308 17.0382C19.2308 17.9521 19.5872 18.3186 20.0735 18.3186C20.5598 18.3186 20.9162 17.9521 20.9162 17.0382ZM24.0329 15.2912C23.2455 15.2912 22.5944 15.6046 22.2862 15.7847V18.7055H22.9988V16.0648C23.211 15.9449 23.5605 15.8246 23.8347 15.8246C24.184 15.8246 24.4509 15.918 24.4509 16.4449V18.7055H25.1634V16.2913C25.1634 15.6046 24.8554 15.2912 24.0329 15.2912ZM28.6366 17.9718V18.4786C28.3285 18.6522 27.9176 18.7856 27.4241 18.7856C26.2734 18.7856 25.8006 18.092 25.8006 17.0382C25.8006 16.0248 26.3283 15.2912 27.3557 15.2912C28.2123 15.2912 28.7399 15.8315 28.7399 16.9183V17.1649H26.5065C26.5065 17.965 26.8421 18.3186 27.5477 18.3186C27.9176 18.3186 28.2601 18.1919 28.6366 17.9718ZM26.5201 16.7182H28.0889C28.0548 16.0179 27.7051 15.7381 27.3352 15.7381C26.9172 15.7381 26.5956 16.0515 26.5201 16.7182ZM32.1378 15.4045H31.4048L30.6235 17.8584H30.5827L29.7058 15.4045H28.9521L30.2675 18.7388C30.1028 19.2321 29.8154 19.5925 29.3496 19.5925V20.1391C30.137 20.1391 30.555 19.6592 30.8977 18.7388L32.1378 15.4045Z" fill="#0068A3"/>
<path fill-rule="evenodd" clip-rule="evenodd" d="M15.6098 0C16.5526 0 17.4454 0.213705 18.2406 0.593114C18.3655 0.650786 18.4901 0.714237 18.615 0.784293L18.0623 1.26584L17.2318 0.430005L15.8302 1.6469L14.9977 0.762474L12.3867 3.05332L14.0606 4.84893L13.4028 5.41209L15.0514 7.21042L14.3975 7.77228L16.7534 10.3248L18.1519 9.07161L19.361 10.4146C19.1205 10.5966 18.8586 10.7678 18.5699 10.9261C17.6956 11.4114 16.6851 11.6893 15.6098 11.6893C12.3027 11.6893 9.60547 9.06347 9.60547 5.84481C9.60547 2.62543 12.3027 0 15.6098 0ZM14.5155 5.47529L15.9433 4.22373L17.229 5.61387L15.8013 6.86496L14.5155 5.47529ZM16.9587 6.62554L15.5308 7.87675L16.8167 9.26689L18.2445 8.01533L16.9587 6.62554ZM13.4939 3.10189L14.9217 1.85068L16.207 3.24047L14.7792 4.49168L13.4939 3.10189ZM17.1848 1.49003L16.114 2.42835L17.0781 3.47104L18.149 2.53237L17.1848 1.49003ZM18.0166 6.7271L19.0878 5.78842L20.0519 6.831L18.9811 7.76944L18.0166 6.7271ZM20.0293 7.89374L18.9587 8.83254L19.9228 9.87453L20.9936 8.93609L20.0293 7.89374ZM19.3899 4.00709L20.1038 3.38142L20.7465 4.07632L20.033 4.70187L19.3899 4.00709ZM19.1917 1.31678L18.4778 1.94233L19.1205 2.63722L19.8345 2.01168L19.1917 1.31678ZM20.3026 6.07172L21.0165 5.44606L21.6593 6.14084L20.9454 6.7665L20.3026 6.07172ZM18.1717 3.58582L17.101 4.52461L18.0653 5.5666L19.1358 4.62816L18.1717 3.58582Z" fill="#0068A3"/>
</svg>
