<svg width="18" height="18" viewBox="0 0 18 18" fill="none" xmlns="http://www.w3.org/2000/svg">
<path d="M17.854 7.03881C17.7605 6.46146 17.2464 6.07656 16.5454 6.07656C16.3117 6.07656 16.1247 6.07656 15.891 6.07656C15.4704 6.02844 15.3769 6.17279 15.3769 6.50958C15.3769 8.19353 15.3769 9.82937 15.3769 11.5133C15.3769 12.3794 14.5356 13.2935 13.5541 13.486C10.4694 14.2076 7.38464 14.8812 4.29992 15.6029C3.97275 15.6991 3.59885 15.6991 3.22494 15.6991C3.08473 15.6991 2.85104 15.6029 2.8043 15.4586C2.75756 15.3624 2.89777 15.1699 2.99125 15.0737C3.13146 14.9775 3.31842 14.8812 3.50537 14.785C4.06623 14.5926 4.67382 14.4001 5.23468 14.2077C7.52486 13.4378 9.81504 12.668 12.1052 11.8501C13.1335 11.5133 13.6943 10.7916 13.6943 9.87748C13.7411 6.99071 13.6943 4.05581 13.6943 1.16904C13.6943 0.687906 13.4606 0.303004 12.9465 0.110552C12.3389 -0.130012 11.778 0.0624365 11.2639 0.303001C7.99224 1.89073 4.7673 3.47846 1.49562 5.06619C0.560851 5.54732 0 6.2209 0 7.18316C0 9.92559 0 12.668 0 15.4105C0 15.5548 -1.14107e-05 15.6992 0.0467269 15.7954C0.373895 16.7095 1.2152 17.2869 2.33692 17.2869C4.62709 17.2869 6.91726 17.2869 9.20744 17.2869C11.4976 17.2869 13.7411 17.2869 16.0312 17.2869C16.5454 17.2869 16.966 17.1907 17.3399 16.8539C17.8073 16.469 17.8073 15.9397 17.8073 15.4586C17.8073 13.0915 17.854 7.03881 17.854 7.03881ZM8.31941 6.17279C8.5531 5.54732 9.06723 5.16241 9.81504 5.06619C10.3292 5.01807 10.7498 5.30675 10.8433 5.78788C10.9368 6.50958 10.0955 7.37561 9.20744 7.37561C8.50636 7.37561 8.08572 6.84637 8.31941 6.17279Z" fill="#FD6727"/>
</svg>
